<?xml version="1.0" encoding="utf-8"?>
<!-- Generator: Adobe Illustrator 15.1.0, SVG Export Plug-In . SVG Version: 6.00 Build 0)  -->
<!DOCTYPE svg PUBLIC "-//W3C//DTD SVG 1.1//EN" "http://www.w3.org/Graphics/SVG/1.1/DTD/svg11.dtd">
<svg version="1.1" id="Layer_1" xmlns="http://www.w3.org/2000/svg" xmlns:xlink="http://www.w3.org/1999/xlink" x="0px" y="0px"
	 width="178.5px" height="37.229px" viewBox="0 0 178.5 37.229" enable-background="new 0 0 178.5 37.229" xml:space="preserve">
<path fill="#FFFFFF" d="M35.506,5.094c-2.718-6.423-10.024-5.643-11.982-4.077c-5.907,3.725-9.75,19.389-2.14,20.869
	c0.409,0.165-0.086,0.675-1.072,0.563c-2.594,0-6.701-6.547-2.1-16.12C14.814,6.323,8.237,7.565,5.18,13.031
	c-5.585,8.192-5.152,8.739-1.186,2.837c-1.858,5.709-2.576,14.996-0.297,19.243c1.408,2.407,4.91,1.822,5.374-0.448
	c1.681-6.411,13.518-6.868,14.826,0.607c0.437,2.589,4.027,2.636,5.248,0c1.11-2.074,1.854-6.89,1.604-9.979
	c-0.618-3.86,3.752-1.281,3.768,8.4c-0.328,1.686,2.318,2.129,2.809,0.232C39.52,23.5,38.594,12.876,35.506,5.094z M29.713,8.119
	c-1.071,0-1.071-1.661,0-1.661S30.784,8.119,29.713,8.119z"/>
<text transform="matrix(1 0 0 1 51.1538 26.2803)" fill="#FFFFFF" font-family="'GloriaHallelujah'" font-size="34.818">opinio.co</text>
</svg>
